<?xml version="1.0" encoding="utf-8"?>
<!-- Generator: Adobe Illustrator 17.0.0, SVG Export Plug-In . SVG Version: 6.00 Build 0)  -->
<!DOCTYPE svg PUBLIC "-//W3C//DTD SVG 1.1//EN" "http://www.w3.org/Graphics/SVG/1.1/DTD/svg11.dtd">
<svg version="1.1" id="Layer_1" xmlns="http://www.w3.org/2000/svg" xmlns:xlink="http://www.w3.org/1999/xlink" x="0px" y="0px"
	 width="1363.176px" height="111.303px" viewBox="0 0 1363.176 111.303" enable-background="new 0 0 1363.176 111.303"
	 xml:space="preserve">
<g>
	<g>
		<path fill="#FFFFFF" d="M37.768,33.768c0,2.2-1.8,4-4,4H6c-2.2,0-4-1.8-4-4V6c0-2.2,1.8-4,4-4h27.768c2.2,0,4,1.8,4,4V33.768z"/>
		<path fill="none" stroke="#3B3D3B" stroke-width="4" stroke-miterlimit="10" d="M37.768,33.768c0,2.2-1.8,4-4,4H6
			c-2.2,0-4-1.8-4-4V6c0-2.2,1.8-4,4-4h27.768c2.2,0,4,1.8,4,4V33.768z"/>
	</g>
	<g>
		<path fill="#FFFFFF" d="M37.768,69.535c0,2.2-1.8,4-4,4H6c-2.2,0-4-1.8-4-4V41.768c0-2.2,1.8-4,4-4h27.768c2.2,0,4,1.8,4,4V69.535
			z"/>
		<path fill="none" stroke="#3B3D3B" stroke-width="4" stroke-miterlimit="10" d="M37.768,69.535c0,2.2-1.8,4-4,4H6
			c-2.2,0-4-1.8-4-4V41.768c0-2.2,1.8-4,4-4h27.768c2.2,0,4,1.8,4,4V69.535z"/>
	</g>
	<g>
		<path fill="#FFFFFF" d="M37.768,105.303c0,2.2-1.8,4-4,4H6c-2.2,0-4-1.8-4-4V77.535c0-2.2,1.8-4,4-4h27.768c2.2,0,4,1.8,4,4
			V105.303z"/>
		<path fill="none" stroke="#3B3D3B" stroke-width="4" stroke-miterlimit="10" d="M37.768,105.303c0,2.2-1.8,4-4,4H6
			c-2.2,0-4-1.8-4-4V77.535c0-2.2,1.8-4,4-4h27.768c2.2,0,4,1.8,4,4V105.303z"/>
	</g>
	<g>
		<path fill="#FFFFFF" d="M73.535,69.535c0,2.2-1.8,4-4,4H41.768c-2.2,0-4-1.8-4-4V41.768c0-2.2,1.8-4,4-4h27.768c2.2,0,4,1.8,4,4
			V69.535z"/>
		<path fill="none" stroke="#3B3D3B" stroke-width="4" stroke-miterlimit="10" d="M73.535,69.535c0,2.2-1.8,4-4,4H41.768
			c-2.2,0-4-1.8-4-4V41.768c0-2.2,1.8-4,4-4h27.768c2.2,0,4,1.8,4,4V69.535z"/>
	</g>
	<g>
		<path fill="#FFFFFF" d="M73.535,105.303c0,2.2-1.8,4-4,4H41.768c-2.2,0-4-1.8-4-4V77.535c0-2.2,1.8-4,4-4h27.768c2.2,0,4,1.8,4,4
			V105.303z"/>
		<path fill="none" stroke="#3B3D3B" stroke-width="4" stroke-miterlimit="10" d="M73.535,105.303c0,2.2-1.8,4-4,4H41.768
			c-2.2,0-4-1.8-4-4V77.535c0-2.2,1.8-4,4-4h27.768c2.2,0,4,1.8,4,4V105.303z"/>
	</g>
	<g>
		<path fill="#FFFFFF" d="M109.303,69.535c0,2.2-1.8,4-4,4H77.535c-2.2,0-4-1.8-4-4l0-27.768c0-2.2,1.8-4,4-4h27.768
			c2.2,0,4,1.8,4,4V69.535z"/>
		<path fill="none" stroke="#3B3D3B" stroke-width="4" stroke-miterlimit="10" d="M109.303,69.535c0,2.2-1.8,4-4,4H77.535
			c-2.2,0-4-1.8-4-4l0-27.768c0-2.2,1.8-4,4-4h27.768c2.2,0,4,1.8,4,4V69.535z"/>
	</g>
	<g>
		<path fill="#FFFFFF" d="M109.303,105.303c0,2.2-1.8,4-4,4H77.535c-2.2,0-4-1.8-4-4l0-27.768c0-2.2,1.8-4,4-4h27.768
			c2.2,0,4,1.8,4,4V105.303z"/>
		<path fill="none" stroke="#3B3D3B" stroke-width="4" stroke-miterlimit="10" d="M109.303,105.303c0,2.2-1.8,4-4,4H77.535
			c-2.2,0-4-1.8-4-4l0-27.768c0-2.2,1.8-4,4-4h27.768c2.2,0,4,1.8,4,4V105.303z"/>
	</g>
	<g>
		<path fill="#FFFFFF" d="M180.837,33.768c0,2.2-1.8,4-4,4h-27.768c-2.2,0-4-1.8-4-4V6c0-2.2,1.8-4,4-4h27.768c2.2,0,4,1.8,4,4
			V33.768z"/>
		<path fill="none" stroke="#3B3D3B" stroke-width="4" stroke-miterlimit="10" d="M180.837,33.768c0,2.2-1.8,4-4,4h-27.768
			c-2.2,0-4-1.8-4-4V6c0-2.2,1.8-4,4-4h27.768c2.2,0,4,1.8,4,4V33.768z"/>
	</g>
	<g>
		<path fill="#FFFFFF" d="M180.837,69.535c0,2.2-1.8,4-4,4h-27.768c-2.2,0-4-1.8-4-4V41.768c0-2.2,1.8-4,4-4h27.768c2.2,0,4,1.8,4,4
			V69.535z"/>
		<path fill="none" stroke="#3B3D3B" stroke-width="4" stroke-miterlimit="10" d="M180.837,69.535c0,2.2-1.8,4-4,4h-27.768
			c-2.2,0-4-1.8-4-4V41.768c0-2.2,1.8-4,4-4h27.768c2.2,0,4,1.8,4,4V69.535z"/>
	</g>
	<g>
		<path fill="#FFFFFF" d="M180.837,105.303c0,2.2-1.8,4-4,4h-27.768c-2.2,0-4-1.8-4-4V77.535c0-2.2,1.8-4,4-4h27.768
			c2.2,0,4,1.8,4,4V105.303z"/>
		<path fill="none" stroke="#3B3D3B" stroke-width="4" stroke-miterlimit="10" d="M180.837,105.303c0,2.2-1.8,4-4,4h-27.768
			c-2.2,0-4-1.8-4-4V77.535c0-2.2,1.8-4,4-4h27.768c2.2,0,4,1.8,4,4V105.303z"/>
	</g>
	<g>
		<path fill="#FFFFFF" d="M216.605,105.303c0,2.2-1.8,4-4,4h-27.768c-2.2,0-4-1.8-4-4V77.535c0-2.2,1.8-4,4-4h27.768
			c2.2,0,4,1.8,4,4V105.303z"/>
		<path fill="none" stroke="#3B3D3B" stroke-width="4" stroke-miterlimit="10" d="M216.605,105.303c0,2.2-1.8,4-4,4h-27.768
			c-2.2,0-4-1.8-4-4V77.535c0-2.2,1.8-4,4-4h27.768c2.2,0,4,1.8,4,4V105.303z"/>
	</g>
	<g>
		<path fill="#FFFFFF" d="M252.372,105.303c0,2.2-1.8,4-4,4h-27.768c-2.2,0-4-1.8-4-4V77.535c0-2.2,1.8-4,4-4h27.768
			c2.2,0,4,1.8,4,4V105.303z"/>
		<path fill="none" stroke="#3B3D3B" stroke-width="4" stroke-miterlimit="10" d="M252.372,105.303c0,2.2-1.8,4-4,4h-27.768
			c-2.2,0-4-1.8-4-4V77.535c0-2.2,1.8-4,4-4h27.768c2.2,0,4,1.8,4,4V105.303z"/>
	</g>
	<g>
		<path fill="#FFFFFF" d="M323.907,33.768c0,2.2-1.8,4-4,4H292.14c-2.2,0-4-1.8-4-4V6c0-2.2,1.8-4,4-4h27.768c2.2,0,4,1.8,4,4
			V33.768z"/>
		<path fill="none" stroke="#3B3D3B" stroke-width="4" stroke-miterlimit="10" d="M323.907,33.768c0,2.2-1.8,4-4,4H292.14
			c-2.2,0-4-1.8-4-4V6c0-2.2,1.8-4,4-4h27.768c2.2,0,4,1.8,4,4V33.768z"/>
	</g>
	<g>
		<path fill="#FFFFFF" d="M323.907,69.535c0,2.2-1.8,4-4,4H292.14c-2.2,0-4-1.8-4-4V41.768c0-2.2,1.8-4,4-4h27.768c2.2,0,4,1.8,4,4
			V69.535z"/>
		<path fill="none" stroke="#3B3D3B" stroke-width="4" stroke-miterlimit="10" d="M323.907,69.535c0,2.2-1.8,4-4,4H292.14
			c-2.2,0-4-1.8-4-4V41.768c0-2.2,1.8-4,4-4h27.768c2.2,0,4,1.8,4,4V69.535z"/>
	</g>
	<g>
		<path fill="#FFFFFF" d="M323.907,105.303c0,2.2-1.8,4-4,4H292.14c-2.2,0-4-1.8-4-4V77.535c0-2.2,1.8-4,4-4h27.768c2.2,0,4,1.8,4,4
			V105.303z"/>
		<path fill="none" stroke="#3B3D3B" stroke-width="4" stroke-miterlimit="10" d="M323.907,105.303c0,2.2-1.8,4-4,4H292.14
			c-2.2,0-4-1.8-4-4V77.535c0-2.2,1.8-4,4-4h27.768c2.2,0,4,1.8,4,4V105.303z"/>
	</g>
	<g>
		<path fill="#FFFFFF" d="M395.443,33.768c0,2.2-1.8,4-4,4h-27.768c-2.2,0-4-1.8-4-4V6c0-2.2,1.8-4,4-4h27.768c2.2,0,4,1.8,4,4
			V33.768z"/>
		<path fill="none" stroke="#3B3D3B" stroke-width="4" stroke-miterlimit="10" d="M395.443,33.768c0,2.2-1.8,4-4,4h-27.768
			c-2.2,0-4-1.8-4-4V6c0-2.2,1.8-4,4-4h27.768c2.2,0,4,1.8,4,4V33.768z"/>
	</g>
	<g>
		<path fill="#FFFFFF" d="M359.675,33.768c0,2.2-1.8,4-4,4h-27.768c-2.2,0-4-1.8-4-4V6c0-2.2,1.8-4,4-4h27.768c2.2,0,4,1.8,4,4
			V33.768z"/>
		<path fill="none" stroke="#3B3D3B" stroke-width="4" stroke-miterlimit="10" d="M359.675,33.768c0,2.2-1.8,4-4,4h-27.768
			c-2.2,0-4-1.8-4-4V6c0-2.2,1.8-4,4-4h27.768c2.2,0,4,1.8,4,4V33.768z"/>
	</g>
	<g>
		<path fill="#FFFFFF" d="M395.443,69.535c0,2.2-1.8,4-4,4h-27.768c-2.2,0-4-1.8-4-4V41.768c0-2.2,1.8-4,4-4h27.768c2.2,0,4,1.8,4,4
			V69.535z"/>
		<path fill="none" stroke="#3B3D3B" stroke-width="4" stroke-miterlimit="10" d="M395.443,69.535c0,2.2-1.8,4-4,4h-27.768
			c-2.2,0-4-1.8-4-4V41.768c0-2.2,1.8-4,4-4h27.768c2.2,0,4,1.8,4,4V69.535z"/>
	</g>
	<g>
		<path fill="#FFFFFF" d="M395.443,105.303c0,2.2-1.8,4-4,4h-27.768c-2.2,0-4-1.8-4-4V77.535c0-2.2,1.8-4,4-4h27.768
			c2.2,0,4,1.8,4,4V105.303z"/>
		<path fill="none" stroke="#3B3D3B" stroke-width="4" stroke-miterlimit="10" d="M395.443,105.303c0,2.2-1.8,4-4,4h-27.768
			c-2.2,0-4-1.8-4-4V77.535c0-2.2,1.8-4,4-4h27.768c2.2,0,4,1.8,4,4V105.303z"/>
	</g>
	<g>
		<path fill="#FFFFFF" d="M359.675,105.303c0,2.2-1.8,4-4,4h-27.768c-2.2,0-4-1.8-4-4V77.535c0-2.2,1.8-4,4-4h27.768
			c2.2,0,4,1.8,4,4V105.303z"/>
		<path fill="none" stroke="#3B3D3B" stroke-width="4" stroke-miterlimit="10" d="M359.675,105.303c0,2.2-1.8,4-4,4h-27.768
			c-2.2,0-4-1.8-4-4V77.535c0-2.2,1.8-4,4-4h27.768c2.2,0,4,1.8,4,4V105.303z"/>
	</g>
	<g>
		<path fill="#FFFFFF" d="M896.189,33.768c0,2.2-1.8,4-4,4h-27.768c-2.2,0-4-1.8-4-4V6c0-2.2,1.8-4,4-4h27.768c2.2,0,4,1.8,4,4
			V33.768z"/>
		<path fill="none" stroke="#3B3D3B" stroke-width="4" stroke-miterlimit="10" d="M896.189,33.768c0,2.2-1.8,4-4,4h-27.768
			c-2.2,0-4-1.8-4-4V6c0-2.2,1.8-4,4-4h27.768c2.2,0,4,1.8,4,4V33.768z"/>
	</g>
	<g>
		<path fill="#FFFFFF" d="M896.189,69.535c0,2.2-1.8,4-4,4h-27.768c-2.2,0-4-1.8-4-4V41.768c0-2.2,1.8-4,4-4h27.768c2.2,0,4,1.8,4,4
			V69.535z"/>
		<path fill="none" stroke="#3B3D3B" stroke-width="4" stroke-miterlimit="10" d="M896.189,69.535c0,2.2-1.8,4-4,4h-27.768
			c-2.2,0-4-1.8-4-4V41.768c0-2.2,1.8-4,4-4h27.768c2.2,0,4,1.8,4,4V69.535z"/>
	</g>
	<g>
		<path fill="#FFFFFF" d="M896.189,105.303c0,2.2-1.8,4-4,4h-27.768c-2.2,0-4-1.8-4-4V77.535c0-2.2,1.8-4,4-4h27.768
			c2.2,0,4,1.8,4,4V105.303z"/>
		<path fill="none" stroke="#3B3D3B" stroke-width="4" stroke-miterlimit="10" d="M896.189,105.303c0,2.2-1.8,4-4,4h-27.768
			c-2.2,0-4-1.8-4-4V77.535c0-2.2,1.8-4,4-4h27.768c2.2,0,4,1.8,4,4V105.303z"/>
	</g>
	<g>
		<path fill="#FFFFFF" d="M967.724,33.768c0,2.2-1.8,4-4,4h-27.768c-2.2,0-4-1.8-4-4V6c0-2.2,1.8-4,4-4h27.768c2.2,0,4,1.8,4,4
			V33.768z"/>
		<path fill="none" stroke="#3B3D3B" stroke-width="4" stroke-miterlimit="10" d="M967.724,33.768c0,2.2-1.8,4-4,4h-27.768
			c-2.2,0-4-1.8-4-4V6c0-2.2,1.8-4,4-4h27.768c2.2,0,4,1.8,4,4V33.768z"/>
	</g>
	<g>
		<path fill="#FFFFFF" d="M931.957,33.768c0,2.2-1.8,4-4,4h-27.768c-2.2,0-4-1.8-4-4V6c0-2.2,1.8-4,4-4h27.768c2.2,0,4,1.8,4,4
			V33.768z"/>
		<path fill="none" stroke="#3B3D3B" stroke-width="4" stroke-miterlimit="10" d="M931.957,33.768c0,2.2-1.8,4-4,4h-27.768
			c-2.2,0-4-1.8-4-4V6c0-2.2,1.8-4,4-4h27.768c2.2,0,4,1.8,4,4V33.768z"/>
	</g>
	<g>
		<path fill="#FFFFFF" d="M967.724,69.535c0,2.2-1.8,4-4,4h-27.768c-2.2,0-4-1.8-4-4V41.768c0-2.2,1.8-4,4-4h27.768c2.2,0,4,1.8,4,4
			V69.535z"/>
		<path fill="none" stroke="#3B3D3B" stroke-width="4" stroke-miterlimit="10" d="M967.724,69.535c0,2.2-1.8,4-4,4h-27.768
			c-2.2,0-4-1.8-4-4V41.768c0-2.2,1.8-4,4-4h27.768c2.2,0,4,1.8,4,4V69.535z"/>
	</g>
	<g>
		<path fill="#FFFFFF" d="M967.724,105.303c0,2.2-1.8,4-4,4h-27.768c-2.2,0-4-1.8-4-4V77.535c0-2.2,1.8-4,4-4h27.768
			c2.2,0,4,1.8,4,4V105.303z"/>
		<path fill="none" stroke="#3B3D3B" stroke-width="4" stroke-miterlimit="10" d="M967.724,105.303c0,2.2-1.8,4-4,4h-27.768
			c-2.2,0-4-1.8-4-4V77.535c0-2.2,1.8-4,4-4h27.768c2.2,0,4,1.8,4,4V105.303z"/>
	</g>
	<g>
		<path fill="#FFFFFF" d="M931.957,69.535c0,2.2-1.8,4-4,4h-27.768c-2.2,0-4-1.8-4-4V41.768c0-2.2,1.8-4,4-4h27.768c2.2,0,4,1.8,4,4
			V69.535z"/>
		<path fill="none" stroke="#3B3D3B" stroke-width="4" stroke-miterlimit="10" d="M931.957,69.535c0,2.2-1.8,4-4,4h-27.768
			c-2.2,0-4-1.8-4-4V41.768c0-2.2,1.8-4,4-4h27.768c2.2,0,4,1.8,4,4V69.535z"/>
	</g>
	<g>
		<path fill="#FFFFFF" d="M1289.637,69.533c0,2.2-1.8,4-4,4h-9.885c-2.2,0-4-1.8-4-4v-9.885c0-2.2,1.8-4,4-4h9.885c2.2,0,4,1.8,4,4
			V69.533z"/>
		<path fill="none" stroke="#3B3D3B" stroke-width="4" stroke-miterlimit="10" d="M1289.637,69.533c0,2.2-1.8,4-4,4h-9.885
			c-2.2,0-4-1.8-4-4v-9.885c0-2.2,1.8-4,4-4h9.885c2.2,0,4,1.8,4,4V69.533z"/>
	</g>
	<g>
		<path fill="#FFFFFF" d="M1289.637,87.418c0,2.2-1.8,4-4,4h-9.885c-2.2,0-4-1.8-4-4v-9.885c0-2.2,1.8-4,4-4h9.885c2.2,0,4,1.8,4,4
			V87.418z"/>
		<path fill="none" stroke="#3B3D3B" stroke-width="4" stroke-miterlimit="10" d="M1289.637,87.418c0,2.2-1.8,4-4,4h-9.885
			c-2.2,0-4-1.8-4-4v-9.885c0-2.2,1.8-4,4-4h9.885c2.2,0,4,1.8,4,4V87.418z"/>
	</g>
	<g>
		<path fill="#FFFFFF" d="M1289.637,105.303c0,2.2-1.8,4-4,4h-9.885c-2.2,0-4-1.8-4-4v-9.885c0-2.2,1.8-4,4-4h9.885c2.2,0,4,1.8,4,4
			V105.303z"/>
		<path fill="none" stroke="#3B3D3B" stroke-width="4" stroke-miterlimit="10" d="M1289.637,105.303c0,2.2-1.8,4-4,4h-9.885
			c-2.2,0-4-1.8-4-4v-9.885c0-2.2,1.8-4,4-4h9.885c2.2,0,4,1.8,4,4V105.303z"/>
	</g>
	<g>
		<path fill="#FFFFFF" d="M1271.752,105.303c0,2.2-1.8,4-4,4h-9.885c-2.2,0-4-1.8-4-4v-9.885c0-2.2,1.8-4,4-4h9.885c2.2,0,4,1.8,4,4
			V105.303z"/>
		<path fill="none" stroke="#3B3D3B" stroke-width="4" stroke-miterlimit="10" d="M1271.752,105.303c0,2.2-1.8,4-4,4h-9.885
			c-2.2,0-4-1.8-4-4v-9.885c0-2.2,1.8-4,4-4h9.885c2.2,0,4,1.8,4,4V105.303z"/>
	</g>
	<g>
		<path fill="#FFFFFF" d="M1343.292,69.533c0,2.2-1.8,4-4,4h-9.885c-2.2,0-4-1.8-4-4v-9.885c0-2.2,1.8-4,4-4h9.885c2.2,0,4,1.8,4,4
			V69.533z"/>
		<path fill="none" stroke="#3B3D3B" stroke-width="4" stroke-miterlimit="10" d="M1343.292,69.533c0,2.2-1.8,4-4,4h-9.885
			c-2.2,0-4-1.8-4-4v-9.885c0-2.2,1.8-4,4-4h9.885c2.2,0,4,1.8,4,4V69.533z"/>
	</g>
	<g>
		<path fill="#FFFFFF" d="M1343.292,87.418c0,2.2-1.8,4-4,4h-9.885c-2.2,0-4-1.8-4-4v-9.885c0-2.2,1.8-4,4-4h9.885c2.2,0,4,1.8,4,4
			V87.418z"/>
		<path fill="none" stroke="#3B3D3B" stroke-width="4" stroke-miterlimit="10" d="M1343.292,87.418c0,2.2-1.8,4-4,4h-9.885
			c-2.2,0-4-1.8-4-4v-9.885c0-2.2,1.8-4,4-4h9.885c2.2,0,4,1.8,4,4V87.418z"/>
	</g>
	<g>
		<path fill="#FFFFFF" d="M1343.292,105.303c0,2.2-1.8,4-4,4h-9.885c-2.2,0-4-1.8-4-4v-9.885c0-2.2,1.8-4,4-4h9.885c2.2,0,4,1.8,4,4
			V105.303z"/>
		<path fill="none" stroke="#3B3D3B" stroke-width="4" stroke-miterlimit="10" d="M1343.292,105.303c0,2.2-1.8,4-4,4h-9.885
			c-2.2,0-4-1.8-4-4v-9.885c0-2.2,1.8-4,4-4h9.885c2.2,0,4,1.8,4,4V105.303z"/>
	</g>
	<g>
		<path fill="#FFFFFF" d="M1325.407,105.303c0,2.2-1.8,4-4,4h-9.885c-2.2,0-4-1.8-4-4v-9.885c0-2.2,1.8-4,4-4h9.885c2.2,0,4,1.8,4,4
			V105.303z"/>
		<path fill="none" stroke="#3B3D3B" stroke-width="4" stroke-miterlimit="10" d="M1325.407,105.303c0,2.2-1.8,4-4,4h-9.885
			c-2.2,0-4-1.8-4-4v-9.885c0-2.2,1.8-4,4-4h9.885c2.2,0,4,1.8,4,4V105.303z"/>
	</g>
	<g>
		<path fill="#FFFFFF" d="M1361.176,69.533c0,2.2-1.8,4-4,4h-9.885c-2.2,0-4-1.8-4-4v-9.885c0-2.2,1.8-4,4-4h9.885c2.2,0,4,1.8,4,4
			V69.533z"/>
		<path fill="none" stroke="#3B3D3B" stroke-width="4" stroke-miterlimit="10" d="M1361.176,69.533c0,2.2-1.8,4-4,4h-9.885
			c-2.2,0-4-1.8-4-4v-9.885c0-2.2,1.8-4,4-4h9.885c2.2,0,4,1.8,4,4V69.533z"/>
	</g>
	<g>
		<path fill="#FFFFFF" d="M1110.795,33.768c0,2.2-1.8,4-4,4h-27.768c-2.2,0-4-1.8-4-4V6c0-2.2,1.8-4,4-4h27.768c2.2,0,4,1.8,4,4
			V33.768z"/>
		<path fill="none" stroke="#3B3D3B" stroke-width="4" stroke-miterlimit="10" d="M1110.795,33.768c0,2.2-1.8,4-4,4h-27.768
			c-2.2,0-4-1.8-4-4V6c0-2.2,1.8-4,4-4h27.768c2.2,0,4,1.8,4,4V33.768z"/>
	</g>
	<g>
		<path fill="#FFFFFF" d="M1110.795,69.535c0,2.2-1.8,4-4,4h-27.768c-2.2,0-4-1.8-4-4V41.768c0-2.2,1.8-4,4-4h27.768
			c2.2,0,4,1.8,4,4V69.535z"/>
		<path fill="none" stroke="#3B3D3B" stroke-width="4" stroke-miterlimit="10" d="M1110.795,69.535c0,2.2-1.8,4-4,4h-27.768
			c-2.2,0-4-1.8-4-4V41.768c0-2.2,1.8-4,4-4h27.768c2.2,0,4,1.8,4,4V69.535z"/>
	</g>
	<g>
		<path fill="#FFFFFF" d="M1110.795,105.303c0,2.2-1.8,4-4,4h-27.768c-2.2,0-4-1.8-4-4V77.535c0-2.2,1.8-4,4-4h27.768
			c2.2,0,4,1.8,4,4V105.303z"/>
		<path fill="none" stroke="#3B3D3B" stroke-width="4" stroke-miterlimit="10" d="M1110.795,105.303c0,2.2-1.8,4-4,4h-27.768
			c-2.2,0-4-1.8-4-4V77.535c0-2.2,1.8-4,4-4h27.768c2.2,0,4,1.8,4,4V105.303z"/>
	</g>
	<g>
		<path fill="#FFFFFF" d="M1182.33,33.768c0,2.2-1.8,4-4,4h-27.768c-2.2,0-4-1.8-4-4V6c0-2.2,1.8-4,4-4h27.768c2.2,0,4,1.8,4,4
			V33.768z"/>
		<path fill="none" stroke="#3B3D3B" stroke-width="4" stroke-miterlimit="10" d="M1182.33,33.768c0,2.2-1.8,4-4,4h-27.768
			c-2.2,0-4-1.8-4-4V6c0-2.2,1.8-4,4-4h27.768c2.2,0,4,1.8,4,4V33.768z"/>
	</g>
	<g>
		<path fill="#FFFFFF" d="M1146.562,33.768c0,2.2-1.8,4-4,4h-27.768c-2.2,0-4-1.8-4-4V6c0-2.2,1.8-4,4-4h27.768c2.2,0,4,1.8,4,4
			V33.768z"/>
		<path fill="none" stroke="#3B3D3B" stroke-width="4" stroke-miterlimit="10" d="M1146.562,33.768c0,2.2-1.8,4-4,4h-27.768
			c-2.2,0-4-1.8-4-4V6c0-2.2,1.8-4,4-4h27.768c2.2,0,4,1.8,4,4V33.768z"/>
	</g>
	<g>
		<path fill="#FFFFFF" d="M1182.33,69.535c0,2.2-1.8,4-4,4h-27.768c-2.2,0-4-1.8-4-4V41.768c0-2.2,1.8-4,4-4h27.768c2.2,0,4,1.8,4,4
			V69.535z"/>
		<path fill="none" stroke="#3B3D3B" stroke-width="4" stroke-miterlimit="10" d="M1182.33,69.535c0,2.2-1.8,4-4,4h-27.768
			c-2.2,0-4-1.8-4-4V41.768c0-2.2,1.8-4,4-4h27.768c2.2,0,4,1.8,4,4V69.535z"/>
	</g>
	<g>
		<path fill="#FFFFFF" d="M1182.33,105.303c0,2.2-1.8,4-4,4h-27.768c-2.2,0-4-1.8-4-4V77.535c0-2.2,1.8-4,4-4h27.768
			c2.2,0,4,1.8,4,4V105.303z"/>
		<path fill="none" stroke="#3B3D3B" stroke-width="4" stroke-miterlimit="10" d="M1182.33,105.303c0,2.2-1.8,4-4,4h-27.768
			c-2.2,0-4-1.8-4-4V77.535c0-2.2,1.8-4,4-4h27.768c2.2,0,4,1.8,4,4V105.303z"/>
	</g>
	<g>
		<path fill="#FFFFFF" d="M1235.982,105.303c0,2.2-1.8,4-4,4h-9.885c-2.2,0-4-1.8-4-4v-9.885c0-2.2,1.8-4,4-4h9.885c2.2,0,4,1.8,4,4
			V105.303z"/>
		<path fill="none" stroke="#3B3D3B" stroke-width="4" stroke-miterlimit="10" d="M1235.982,105.303c0,2.2-1.8,4-4,4h-9.885
			c-2.2,0-4-1.8-4-4v-9.885c0-2.2,1.8-4,4-4h9.885c2.2,0,4,1.8,4,4V105.303z"/>
	</g>
	<g>
		<path fill="#FFFFFF" d="M466.978,33.768c0,2.2-1.8,4-4,4H435.21c-2.2,0-4-1.8-4-4V6c0-2.2,1.8-4,4-4h27.768c2.2,0,4,1.8,4,4
			V33.768z"/>
		<path fill="none" stroke="#3B3D3B" stroke-width="4" stroke-miterlimit="10" d="M466.978,33.768c0,2.2-1.8,4-4,4H435.21
			c-2.2,0-4-1.8-4-4V6c0-2.2,1.8-4,4-4h27.768c2.2,0,4,1.8,4,4V33.768z"/>
	</g>
	<g>
		<path fill="#FFFFFF" d="M466.978,69.535c0,2.2-1.8,4-4,4H435.21c-2.2,0-4-1.8-4-4V41.768c0-2.2,1.8-4,4-4h27.768c2.2,0,4,1.8,4,4
			V69.535z"/>
		<path fill="none" stroke="#3B3D3B" stroke-width="4" stroke-miterlimit="10" d="M466.978,69.535c0,2.2-1.8,4-4,4H435.21
			c-2.2,0-4-1.8-4-4V41.768c0-2.2,1.8-4,4-4h27.768c2.2,0,4,1.8,4,4V69.535z"/>
	</g>
	<g>
		<path fill="#FFFFFF" d="M466.978,105.303c0,2.2-1.8,4-4,4H435.21c-2.2,0-4-1.8-4-4V77.535c0-2.2,1.8-4,4-4h27.768c2.2,0,4,1.8,4,4
			V105.303z"/>
		<path fill="none" stroke="#3B3D3B" stroke-width="4" stroke-miterlimit="10" d="M466.978,105.303c0,2.2-1.8,4-4,4H435.21
			c-2.2,0-4-1.8-4-4V77.535c0-2.2,1.8-4,4-4h27.768c2.2,0,4,1.8,4,4V105.303z"/>
	</g>
	<g>
		<path fill="#FFFFFF" d="M538.513,33.768c0,2.2-1.8,4-4,4h-27.768c-2.2,0-4-1.8-4-4V6c0-2.2,1.8-4,4-4h27.768c2.2,0,4,1.8,4,4
			V33.768z"/>
		<path fill="none" stroke="#3B3D3B" stroke-width="4" stroke-miterlimit="10" d="M538.513,33.768c0,2.2-1.8,4-4,4h-27.768
			c-2.2,0-4-1.8-4-4V6c0-2.2,1.8-4,4-4h27.768c2.2,0,4,1.8,4,4V33.768z"/>
	</g>
	<g>
		<path fill="#FFFFFF" d="M502.745,33.768c0,2.2-1.8,4-4,4h-27.768c-2.2,0-4-1.8-4-4V6c0-2.2,1.8-4,4-4h27.768c2.2,0,4,1.8,4,4
			V33.768z"/>
		<path fill="none" stroke="#3B3D3B" stroke-width="4" stroke-miterlimit="10" d="M502.745,33.768c0,2.2-1.8,4-4,4h-27.768
			c-2.2,0-4-1.8-4-4V6c0-2.2,1.8-4,4-4h27.768c2.2,0,4,1.8,4,4V33.768z"/>
	</g>
	<g>
		<path fill="#FFFFFF" d="M538.513,105.303c0,2.2-1.8,4-4,4h-27.768c-2.2,0-4-1.8-4-4V77.535c0-2.2,1.8-4,4-4h27.768
			c2.2,0,4,1.8,4,4V105.303z"/>
		<path fill="none" stroke="#3B3D3B" stroke-width="4" stroke-miterlimit="10" d="M538.513,105.303c0,2.2-1.8,4-4,4h-27.768
			c-2.2,0-4-1.8-4-4V77.535c0-2.2,1.8-4,4-4h27.768c2.2,0,4,1.8,4,4V105.303z"/>
	</g>
	<g>
		<path fill="#FFFFFF" d="M502.745,105.303c0,2.2-1.8,4-4,4h-27.768c-2.2,0-4-1.8-4-4V77.535c0-2.2,1.8-4,4-4h27.768
			c2.2,0,4,1.8,4,4V105.303z"/>
		<path fill="none" stroke="#3B3D3B" stroke-width="4" stroke-miterlimit="10" d="M502.745,105.303c0,2.2-1.8,4-4,4h-27.768
			c-2.2,0-4-1.8-4-4V77.535c0-2.2,1.8-4,4-4h27.768c2.2,0,4,1.8,4,4V105.303z"/>
	</g>
	<g>
		<path fill="#FFFFFF" d="M753.119,33.768c0,2.2-1.8,4-4,4h-27.768c-2.2,0-4-1.8-4-4V6c0-2.2,1.8-4,4-4h27.768c2.2,0,4,1.8,4,4
			V33.768z"/>
		<path fill="none" stroke="#3B3D3B" stroke-width="4" stroke-miterlimit="10" d="M753.119,33.768c0,2.2-1.8,4-4,4h-27.768
			c-2.2,0-4-1.8-4-4V6c0-2.2,1.8-4,4-4h27.768c2.2,0,4,1.8,4,4V33.768z"/>
	</g>
	<g>
		<path fill="#FFFFFF" d="M753.119,69.535c0,2.2-1.8,4-4,4h-27.768c-2.2,0-4-1.8-4-4V41.768c0-2.2,1.8-4,4-4h27.768c2.2,0,4,1.8,4,4
			V69.535z"/>
		<path fill="none" stroke="#3B3D3B" stroke-width="4" stroke-miterlimit="10" d="M753.119,69.535c0,2.2-1.8,4-4,4h-27.768
			c-2.2,0-4-1.8-4-4V41.768c0-2.2,1.8-4,4-4h27.768c2.2,0,4,1.8,4,4V69.535z"/>
	</g>
	<g>
		<path fill="#FFFFFF" d="M753.119,105.303c0,2.2-1.8,4-4,4h-27.768c-2.2,0-4-1.8-4-4V77.535c0-2.2,1.8-4,4-4h27.768
			c2.2,0,4,1.8,4,4V105.303z"/>
		<path fill="none" stroke="#3B3D3B" stroke-width="4" stroke-miterlimit="10" d="M753.119,105.303c0,2.2-1.8,4-4,4h-27.768
			c-2.2,0-4-1.8-4-4V77.535c0-2.2,1.8-4,4-4h27.768c2.2,0,4,1.8,4,4V105.303z"/>
	</g>
	<g>
		<path fill="#FFFFFF" d="M824.654,33.768c0,2.2-1.8,4-4,4h-27.768c-2.2,0-4-1.8-4-4V6c0-2.2,1.8-4,4-4h27.768c2.2,0,4,1.8,4,4
			V33.768z"/>
		<path fill="none" stroke="#3B3D3B" stroke-width="4" stroke-miterlimit="10" d="M824.654,33.768c0,2.2-1.8,4-4,4h-27.768
			c-2.2,0-4-1.8-4-4V6c0-2.2,1.8-4,4-4h27.768c2.2,0,4,1.8,4,4V33.768z"/>
	</g>
	<g>
		<path fill="#FFFFFF" d="M788.886,33.768c0,2.2-1.8,4-4,4h-27.768c-2.2,0-4-1.8-4-4V6c0-2.2,1.8-4,4-4h27.768c2.2,0,4,1.8,4,4
			V33.768z"/>
		<path fill="none" stroke="#3B3D3B" stroke-width="4" stroke-miterlimit="10" d="M788.886,33.768c0,2.2-1.8,4-4,4h-27.768
			c-2.2,0-4-1.8-4-4V6c0-2.2,1.8-4,4-4h27.768c2.2,0,4,1.8,4,4V33.768z"/>
	</g>
	<g>
		<path fill="#FFFFFF" d="M1039.26,33.768c0,2.2-1.8,4-4,4h-27.768c-2.2,0-4-1.8-4-4V6c0-2.2,1.8-4,4-4h27.768c2.2,0,4,1.8,4,4
			V33.768z"/>
		<path fill="none" stroke="#3B3D3B" stroke-width="4" stroke-miterlimit="10" d="M1039.26,33.768c0,2.2-1.8,4-4,4h-27.768
			c-2.2,0-4-1.8-4-4V6c0-2.2,1.8-4,4-4h27.768c2.2,0,4,1.8,4,4V33.768z"/>
	</g>
	<g>
		<path fill="#FFFFFF" d="M1039.26,69.535c0,2.2-1.8,4-4,4h-27.768c-2.2,0-4-1.8-4-4V41.768c0-2.2,1.8-4,4-4h27.768c2.2,0,4,1.8,4,4
			V69.535z"/>
		<path fill="none" stroke="#3B3D3B" stroke-width="4" stroke-miterlimit="10" d="M1039.26,69.535c0,2.2-1.8,4-4,4h-27.768
			c-2.2,0-4-1.8-4-4V41.768c0-2.2,1.8-4,4-4h27.768c2.2,0,4,1.8,4,4V69.535z"/>
	</g>
	<g>
		<path fill="#FFFFFF" d="M1039.26,105.303c0,2.2-1.8,4-4,4h-27.768c-2.2,0-4-1.8-4-4V77.535c0-2.2,1.8-4,4-4h27.768
			c2.2,0,4,1.8,4,4V105.303z"/>
		<path fill="none" stroke="#3B3D3B" stroke-width="4" stroke-miterlimit="10" d="M1039.26,105.303c0,2.2-1.8,4-4,4h-27.768
			c-2.2,0-4-1.8-4-4V77.535c0-2.2,1.8-4,4-4h27.768c2.2,0,4,1.8,4,4V105.303z"/>
	</g>
	<g>
		<path fill="#FFFFFF" d="M610.048,33.768c0,2.2-1.8,4-4,4h-27.768c-2.2,0-4-1.8-4-4V6c0-2.2,1.8-4,4-4h27.768c2.2,0,4,1.8,4,4
			V33.768z"/>
		<path fill="none" stroke="#3B3D3B" stroke-width="4" stroke-miterlimit="10" d="M610.048,33.768c0,2.2-1.8,4-4,4h-27.768
			c-2.2,0-4-1.8-4-4V6c0-2.2,1.8-4,4-4h27.768c2.2,0,4,1.8,4,4V33.768z"/>
	</g>
	<g>
		<path fill="#FFFFFF" d="M610.048,69.535c0,2.2-1.8,4-4,4h-27.768c-2.2,0-4-1.8-4-4V41.768c0-2.2,1.8-4,4-4h27.768c2.2,0,4,1.8,4,4
			V69.535z"/>
		<path fill="none" stroke="#3B3D3B" stroke-width="4" stroke-miterlimit="10" d="M610.048,69.535c0,2.2-1.8,4-4,4h-27.768
			c-2.2,0-4-1.8-4-4V41.768c0-2.2,1.8-4,4-4h27.768c2.2,0,4,1.8,4,4V69.535z"/>
	</g>
	<g>
		<path fill="#FFFFFF" d="M645.816,69.535c0,2.2-1.8,4-4,4h-27.768c-2.2,0-4-1.8-4-4V41.768c0-2.2,1.8-4,4-4h27.768c2.2,0,4,1.8,4,4
			V69.535z"/>
		<path fill="none" stroke="#3B3D3B" stroke-width="4" stroke-miterlimit="10" d="M645.816,69.535c0,2.2-1.8,4-4,4h-27.768
			c-2.2,0-4-1.8-4-4V41.768c0-2.2,1.8-4,4-4h27.768c2.2,0,4,1.8,4,4V69.535z"/>
	</g>
	<g>
		<path fill="#FFFFFF" d="M681.583,105.303c0,2.2-1.8,4-4,4h-27.768c-2.2,0-4-1.8-4-4V77.535c0-2.2,1.8-4,4-4h27.768
			c2.2,0,4,1.8,4,4V105.303z"/>
		<path fill="none" stroke="#3B3D3B" stroke-width="4" stroke-miterlimit="10" d="M681.583,105.303c0,2.2-1.8,4-4,4h-27.768
			c-2.2,0-4-1.8-4-4V77.535c0-2.2,1.8-4,4-4h27.768c2.2,0,4,1.8,4,4V105.303z"/>
	</g>
	<g>
		<path fill="#FFFFFF" d="M681.583,33.768c0,2.2-1.8,4-4,4h-27.768c-2.2,0-4-1.8-4-4V6c0-2.2,1.8-4,4-4h27.768c2.2,0,4,1.8,4,4
			V33.768z"/>
		<path fill="none" stroke="#3B3D3B" stroke-width="4" stroke-miterlimit="10" d="M681.583,33.768c0,2.2-1.8,4-4,4h-27.768
			c-2.2,0-4-1.8-4-4V6c0-2.2,1.8-4,4-4h27.768c2.2,0,4,1.8,4,4V33.768z"/>
	</g>
	<g>
		<path fill="#FFFFFF" d="M610.048,105.303c0,2.2-1.8,4-4,4h-27.768c-2.2,0-4-1.8-4-4V77.535c0-2.2,1.8-4,4-4h27.768
			c2.2,0,4,1.8,4,4V105.303z"/>
		<path fill="none" stroke="#3B3D3B" stroke-width="4" stroke-miterlimit="10" d="M610.048,105.303c0,2.2-1.8,4-4,4h-27.768
			c-2.2,0-4-1.8-4-4V77.535c0-2.2,1.8-4,4-4h27.768c2.2,0,4,1.8,4,4V105.303z"/>
	</g>
</g>
</svg>
